<svg width="222" height="36" viewBox="0 0 222 36" fill="none" xmlns="http://www.w3.org/2000/svg">
<g id="Logo">
<g id="Group">
<path id="Vector" d="M55.6095 0.0187378H49.7627V35.0528H55.6095V0.0187378Z" fill="#00546B"/>
<path id="Vector_2" d="M11.6935 23.3684C18.1548 23.3684 23.3964 18.1361 23.3964 11.6842C23.3964 5.2323 18.1548 0 11.6935 0C5.23229 0 0.0372405 5.19506 0 11.619V35.0526H5.84676V11.6283C5.87469 8.40704 8.46291 5.80952 11.6935 5.80952C14.9241 5.80952 17.5775 8.44429 17.5775 11.6935C17.5775 14.9428 14.9428 17.5403 11.6935 17.5403H8.90048V23.3777H11.6935V23.3684Z" fill="#00546B"/>
<path id="Vector_3" d="M151.969 23.2938C151.969 22.5956 151.885 21.9159 151.764 21.2456C151.755 21.1897 151.746 21.1432 151.736 21.0873C151.681 20.808 151.615 20.5473 151.541 20.2774C151.513 20.1749 151.494 20.0632 151.457 19.9608C151.392 19.7374 151.308 19.5325 151.234 19.3184C151.178 19.1694 151.131 19.0112 151.066 18.8622C151.001 18.7039 150.917 18.5457 150.843 18.3874C150.75 18.1919 150.666 17.9964 150.563 17.8102C150.507 17.7078 150.442 17.6053 150.377 17.4936C150.247 17.2609 150.107 17.0374 149.958 16.814C149.921 16.7674 149.884 16.7209 149.846 16.665C149.455 16.1064 149.027 15.5757 148.534 15.0823C145.657 12.2055 141.654 11.1534 137.939 11.9075C137.836 11.9262 137.743 11.9541 137.65 11.982C137.38 12.0472 137.11 12.1031 136.85 12.1868C136.691 12.2334 136.542 12.2986 136.384 12.3544C136.189 12.4289 135.984 12.4941 135.788 12.5686C135.593 12.6524 135.406 12.7455 135.211 12.8386C135.062 12.913 134.913 12.9782 134.764 13.0527C134.522 13.183 134.289 13.332 134.047 13.4717C133.963 13.5275 133.88 13.5741 133.796 13.6206C130.64 15.7154 128.554 19.2905 128.554 23.359C128.554 26.6082 129.886 29.5409 132.027 31.6636C136.589 36.1884 143.962 36.1791 148.515 31.6171C150.815 29.3175 151.951 26.3103 151.941 23.2938H151.951H151.969ZM144.428 27.5113C142.147 29.7923 138.479 29.783 136.179 27.5299L136.161 27.5486C135.071 26.4779 134.392 24.9976 134.392 23.3497C134.392 21.7297 135.053 20.2587 136.114 19.1881C136.393 18.9088 136.701 18.6574 137.026 18.4433C137.073 18.4153 137.12 18.3874 137.166 18.3595C137.278 18.285 137.39 18.2198 137.511 18.1546C137.585 18.1174 137.66 18.0802 137.743 18.0429C137.836 17.9964 137.929 17.9498 138.032 17.9126C138.125 17.8753 138.227 17.8381 138.33 17.8009C138.404 17.7729 138.488 17.745 138.572 17.7171C138.702 17.6798 138.823 17.6519 138.954 17.6147C139.009 17.6053 139.065 17.5867 139.121 17.5774C139.503 17.5029 139.885 17.4564 140.285 17.4564C143.516 17.4564 146.104 20.0539 146.132 23.2752H146.16C146.169 24.8021 145.601 26.3289 144.437 27.4927L144.428 27.5113Z" fill="#00546B"/>
<path id="Vector_4" d="M125.715 22.9864C125.501 16.7207 120.361 11.7119 114.04 11.7119C111.917 11.7119 109.869 12.2798 108.165 13.2667V0.0090332H102.328V35.0337H108.165V23.2285C108.249 20.0537 110.846 17.5121 114.04 17.5121C117.233 17.5121 119.859 20.1096 119.887 23.3309V35.0337H125.733V22.9864H125.705H125.715Z" fill="#00546B"/>
<path id="Vector_5" d="M65.5617 23.3781L73.1495 11.7032H66.0179L58.4302 23.3781L65.9807 35.0437H73.1029L65.5617 23.3781Z" fill="#00546B"/>
<path id="Vector_6" d="M95.6803 11.7122H82.4226C78.4007 11.7122 75.1328 14.98 75.1328 19.002C75.1328 23.024 78.4007 26.2918 82.4226 26.2918H91.1928C92.0028 26.2918 92.6638 26.9528 92.6638 27.7628C92.6638 28.5728 92.0028 29.2338 91.1928 29.2338H78.1586V35.0806H91.1835C95.2241 35.0806 98.5012 31.8034 98.5012 27.7628C98.5012 23.7222 95.2241 20.4451 91.1835 20.4451H82.4226C81.622 20.4451 80.9796 19.8027 80.9796 19.002C80.9796 18.2013 81.622 17.5589 82.4226 17.5589H95.6896V11.7215L95.6803 11.7122Z" fill="#00546B"/>
<path id="Vector_7" d="M35.0715 35.0529C28.6103 35.0529 23.3687 29.8206 23.3687 23.3687C23.3687 16.9167 28.6103 11.6844 35.0715 11.6844C41.5327 11.6844 46.7278 16.8795 46.765 23.2942V35.0529H40.9182V23.3128C40.8903 20.0915 38.3021 17.494 35.0715 17.494C31.8409 17.494 29.1875 20.1287 29.1875 23.378C29.1875 26.6272 31.8222 29.2247 35.0715 29.2247H38.0787V35.0622H35.0715V35.0529Z" fill="#00546B"/>
<path id="Vector_8" d="M210.306 35.0529C203.845 35.0529 198.604 29.8206 198.604 23.3687C198.604 16.9167 203.845 11.6844 210.306 11.6844C216.768 11.6844 221.963 16.8795 222 23.2942V35.0529H216.153V23.3128C216.125 20.0915 213.537 17.494 210.306 17.494C207.076 17.494 204.422 20.1287 204.422 23.378C204.422 26.6272 207.057 29.2247 210.306 29.2247H213.314V35.0622H210.306V35.0529Z" fill="#00546B"/>
<path id="Vector_9" d="M195.727 23.3403C195.513 17.0746 190.374 11.6561 184.052 11.6561C180.551 11.6561 177.442 13.1922 175.31 15.6222C173.168 13.1922 170.04 11.6561 166.54 11.6561C164.417 11.6561 162.415 12.224 160.702 13.2109V11.684H154.883V35.0431H160.702V23.331C160.786 20.1655 163.337 17.4563 166.54 17.4563C169.742 17.4563 172.321 20.119 172.349 23.331V35.0431H178.196V23.331C178.28 20.1655 180.859 17.4563 184.052 17.4563C187.245 17.4563 189.871 20.119 189.899 23.331V35.0431H195.727V23.331V23.3403Z" fill="#00546B"/>
</g>
</g>
</svg>